<mxfile host="app.diagrams.net" agent="Mozilla/5.0 (Macintosh; Intel Mac OS X 10_15_7) AppleWebKit/605.1.15 (KHTML, like Gecko) Version/18.6 Safari/605.1.15" version="28.1.1">
  <diagram name="Pagina-1" id="MnMaTp1NcrIObYT-GjtD">
    <mxGraphModel dx="1760" dy="1254" grid="1" gridSize="10" guides="1" tooltips="1" connect="1" arrows="1" fold="1" page="1" pageScale="1" pageWidth="827" pageHeight="1169" math="0" shadow="0">
      <root>
        <mxCell id="0" />
        <mxCell id="1" parent="0" />
        <mxCell id="Nlh5MWxRUOQyulOnam_9-148" value="«system»&lt;br&gt;&lt;b&gt;Camunda&lt;/b&gt;" style="html=1;dropTarget=0;whiteSpace=wrap;verticalAlign=top;labelBackgroundColor=none;fillColor=#dae8fc;strokeColor=#6c8ebf;" vertex="1" parent="1">
          <mxGeometry x="660" y="960" width="410" height="190" as="geometry" />
        </mxCell>
        <mxCell id="Nlh5MWxRUOQyulOnam_9-149" value="" style="shape=module;jettyWidth=8;jettyHeight=4;fontColor=light-dark(#000000,#000000);labelBackgroundColor=none;" vertex="1" parent="Nlh5MWxRUOQyulOnam_9-148">
          <mxGeometry x="1" width="20" height="20" relative="1" as="geometry">
            <mxPoint x="-27" y="7" as="offset" />
          </mxGeometry>
        </mxCell>
        <mxCell id="Nlh5MWxRUOQyulOnam_9-144" value="&lt;div&gt;&amp;lt;&amp;lt;subsystem&amp;gt;&amp;gt;&lt;/div&gt;&lt;div&gt;&lt;b&gt;Restaurant application&lt;/b&gt;&lt;/div&gt;" style="html=1;dropTarget=0;whiteSpace=wrap;verticalAlign=top;fillColor=#dae8fc;strokeColor=#6c8ebf;labelBackgroundColor=none;" vertex="1" parent="1">
          <mxGeometry x="260" y="10" width="1280" height="900" as="geometry" />
        </mxCell>
        <mxCell id="Nlh5MWxRUOQyulOnam_9-145" value="" style="shape=module;jettyWidth=8;jettyHeight=4;fontColor=light-dark(#000000,#000000);labelBackgroundColor=none;" vertex="1" parent="Nlh5MWxRUOQyulOnam_9-144">
          <mxGeometry x="1" width="20" height="20" relative="1" as="geometry">
            <mxPoint x="-27" y="7" as="offset" />
          </mxGeometry>
        </mxCell>
        <mxCell id="Nlh5MWxRUOQyulOnam_9-1" value="«service»&lt;br&gt;&lt;b&gt;Gateway&lt;/b&gt;" style="html=1;dropTarget=0;whiteSpace=wrap;verticalAlign=top;fontColor=#ffffff;labelBackgroundColor=none;fillColor=#1ba1e2;strokeColor=#006EAF;" vertex="1" parent="1">
          <mxGeometry x="291.5" y="310" width="348.5" height="360" as="geometry" />
        </mxCell>
        <mxCell id="Nlh5MWxRUOQyulOnam_9-2" value="" style="shape=module;jettyWidth=8;jettyHeight=4;fontColor=light-dark(#000000,#000000);labelBackgroundColor=none;" vertex="1" parent="Nlh5MWxRUOQyulOnam_9-1">
          <mxGeometry x="1" width="20" height="20" relative="1" as="geometry">
            <mxPoint x="-27" y="7" as="offset" />
          </mxGeometry>
        </mxCell>
        <mxCell id="Nlh5MWxRUOQyulOnam_9-3" value="«component»&lt;br&gt;&lt;b&gt;Authentication&amp;nbsp;&lt;/b&gt;&lt;div&gt;&lt;b&gt;(JwtService)&lt;/b&gt;&lt;/div&gt;" style="html=1;dropTarget=0;whiteSpace=wrap;verticalAlign=top;fontColor=light-dark(#FFFFFF,#000000);labelBackgroundColor=none;fillColor=#0050EF;" vertex="1" parent="1">
          <mxGeometry x="416.5" y="550" width="170" height="60" as="geometry" />
        </mxCell>
        <mxCell id="Nlh5MWxRUOQyulOnam_9-4" value="" style="shape=module;jettyWidth=8;jettyHeight=4;fontColor=light-dark(#000000,#000000);labelBackgroundColor=none;" vertex="1" parent="Nlh5MWxRUOQyulOnam_9-3">
          <mxGeometry x="1" width="20" height="20" relative="1" as="geometry">
            <mxPoint x="-27" y="7" as="offset" />
          </mxGeometry>
        </mxCell>
        <mxCell id="Nlh5MWxRUOQyulOnam_9-10" style="edgeStyle=orthogonalEdgeStyle;rounded=0;orthogonalLoop=1;jettySize=auto;html=1;entryX=1;entryY=0.5;entryDx=0;entryDy=0;endArrow=none;endFill=0;fontColor=light-dark(#000000,#000000);labelBackgroundColor=none;" edge="1" parent="1" source="Nlh5MWxRUOQyulOnam_9-6" target="Nlh5MWxRUOQyulOnam_9-9">
          <mxGeometry relative="1" as="geometry" />
        </mxCell>
        <mxCell id="Nlh5MWxRUOQyulOnam_9-6" value="" style="shape=providedRequiredInterface;html=1;verticalLabelPosition=bottom;sketch=0;rotation=-180;fontColor=light-dark(#000000,#000000);labelBackgroundColor=none;fillColor=#0050EF;" vertex="1" parent="1">
          <mxGeometry x="351.5" y="570" width="20" height="20" as="geometry" />
        </mxCell>
        <mxCell id="Nlh5MWxRUOQyulOnam_9-7" style="edgeStyle=orthogonalEdgeStyle;rounded=0;orthogonalLoop=1;jettySize=auto;html=1;entryX=0;entryY=0.5;entryDx=0;entryDy=0;entryPerimeter=0;shape=wire;dashed=1;endArrow=none;endFill=0;fontColor=light-dark(#000000,#000000);labelBackgroundColor=none;" edge="1" parent="1" source="Nlh5MWxRUOQyulOnam_9-3" target="Nlh5MWxRUOQyulOnam_9-6">
          <mxGeometry relative="1" as="geometry" />
        </mxCell>
        <mxCell id="Nlh5MWxRUOQyulOnam_9-8" value="Login" style="text;html=1;align=center;verticalAlign=middle;resizable=0;points=[];autosize=1;strokeColor=none;fillColor=none;fontColor=light-dark(#000000,#000000);labelBackgroundColor=none;" vertex="1" parent="1">
          <mxGeometry x="336.5" y="590" width="50" height="30" as="geometry" />
        </mxCell>
        <mxCell id="Nlh5MWxRUOQyulOnam_9-9" value="" style="whiteSpace=wrap;html=1;aspect=fixed;fontColor=light-dark(#000000,#000000);labelBackgroundColor=none;fillColor=#0050EF;" vertex="1" parent="1">
          <mxGeometry x="281.5" y="570" width="20" height="20" as="geometry" />
        </mxCell>
        <mxCell id="Nlh5MWxRUOQyulOnam_9-11" value="«component»&lt;br&gt;&lt;b&gt;Client&lt;/b&gt;" style="html=1;dropTarget=0;whiteSpace=wrap;fontColor=light-dark(#FFFFFF,#000000);labelBackgroundColor=none;fillColor=#1BA1E2;" vertex="1" parent="1">
          <mxGeometry x="20" y="545" width="130" height="70" as="geometry" />
        </mxCell>
        <mxCell id="Nlh5MWxRUOQyulOnam_9-12" value="" style="shape=module;jettyWidth=8;jettyHeight=4;fontColor=light-dark(#000000,#000000);labelBackgroundColor=none;" vertex="1" parent="Nlh5MWxRUOQyulOnam_9-11">
          <mxGeometry x="1" width="20" height="20" relative="1" as="geometry">
            <mxPoint x="-27" y="7" as="offset" />
          </mxGeometry>
        </mxCell>
        <mxCell id="Nlh5MWxRUOQyulOnam_9-16" style="edgeStyle=orthogonalEdgeStyle;rounded=0;orthogonalLoop=1;jettySize=auto;html=1;exitX=1;exitY=0.5;exitDx=0;exitDy=0;exitPerimeter=0;entryX=1;entryY=0.5;entryDx=0;entryDy=0;endArrow=none;endFill=0;fontColor=light-dark(#000000,#000000);labelBackgroundColor=none;" edge="1" parent="1" source="Nlh5MWxRUOQyulOnam_9-13" target="Nlh5MWxRUOQyulOnam_9-11">
          <mxGeometry relative="1" as="geometry" />
        </mxCell>
        <mxCell id="Nlh5MWxRUOQyulOnam_9-13" value="" style="shape=providedRequiredInterface;html=1;verticalLabelPosition=bottom;sketch=0;rotation=-181;fontColor=light-dark(#000000,#000000);labelBackgroundColor=none;fillColor=#0050EF;" vertex="1" parent="1">
          <mxGeometry x="165" y="570" width="20" height="20" as="geometry" />
        </mxCell>
        <mxCell id="Nlh5MWxRUOQyulOnam_9-14" value="REST" style="edgeStyle=orthogonalEdgeStyle;rounded=0;orthogonalLoop=1;jettySize=auto;html=1;entryX=0;entryY=0.5;entryDx=0;entryDy=0;entryPerimeter=0;endArrow=none;endFill=0;fontColor=light-dark(#000000,#000000);labelBackgroundColor=none;" edge="1" parent="1" source="Nlh5MWxRUOQyulOnam_9-9" target="Nlh5MWxRUOQyulOnam_9-13">
          <mxGeometry x="0.0668" y="-10" relative="1" as="geometry">
            <mxPoint as="offset" />
          </mxGeometry>
        </mxCell>
        <mxCell id="Nlh5MWxRUOQyulOnam_9-17" value="Login" style="text;html=1;align=center;verticalAlign=middle;resizable=0;points=[];autosize=1;strokeColor=none;fillColor=none;fontColor=light-dark(#000000,#000000);labelBackgroundColor=none;" vertex="1" parent="1">
          <mxGeometry x="150" y="590" width="50" height="30" as="geometry" />
        </mxCell>
        <mxCell id="Nlh5MWxRUOQyulOnam_9-18" value="«service»&lt;br&gt;&lt;b&gt;API&lt;/b&gt;" style="html=1;dropTarget=0;whiteSpace=wrap;verticalAlign=top;fontColor=#ffffff;labelBackgroundColor=none;fillColor=#1ba1e2;strokeColor=#006EAF;" vertex="1" parent="1">
          <mxGeometry x="793.5" y="80" width="380" height="350" as="geometry" />
        </mxCell>
        <mxCell id="Nlh5MWxRUOQyulOnam_9-19" value="" style="shape=module;jettyWidth=8;jettyHeight=4;fontColor=light-dark(#000000,#000000);labelBackgroundColor=none;" vertex="1" parent="Nlh5MWxRUOQyulOnam_9-18">
          <mxGeometry x="1" width="20" height="20" relative="1" as="geometry">
            <mxPoint x="-27" y="7" as="offset" />
          </mxGeometry>
        </mxCell>
        <mxCell id="Nlh5MWxRUOQyulOnam_9-135" style="edgeStyle=orthogonalEdgeStyle;rounded=0;orthogonalLoop=1;jettySize=auto;html=1;entryX=0;entryY=0.5;entryDx=0;entryDy=0;endArrow=none;endFill=0;fontColor=light-dark(#000000,#000000);labelBackgroundColor=none;" edge="1" parent="1" source="Nlh5MWxRUOQyulOnam_9-20" target="Nlh5MWxRUOQyulOnam_9-134">
          <mxGeometry relative="1" as="geometry" />
        </mxCell>
        <mxCell id="Nlh5MWxRUOQyulOnam_9-20" value="«component»&lt;br&gt;&lt;div&gt;&lt;b&gt;DishService&lt;/b&gt;&lt;/div&gt;" style="html=1;dropTarget=0;whiteSpace=wrap;verticalAlign=top;fontColor=#ffffff;labelBackgroundColor=none;fillColor=#0050ef;strokeColor=#001DBC;" vertex="1" parent="1">
          <mxGeometry x="948.5" y="150" width="130" height="50" as="geometry" />
        </mxCell>
        <mxCell id="Nlh5MWxRUOQyulOnam_9-21" value="" style="shape=module;jettyWidth=8;jettyHeight=4;fontColor=light-dark(#000000,#000000);labelBackgroundColor=none;" vertex="1" parent="Nlh5MWxRUOQyulOnam_9-20">
          <mxGeometry x="1" width="20" height="20" relative="1" as="geometry">
            <mxPoint x="-27" y="7" as="offset" />
          </mxGeometry>
        </mxCell>
        <mxCell id="Nlh5MWxRUOQyulOnam_9-136" style="edgeStyle=orthogonalEdgeStyle;rounded=0;orthogonalLoop=1;jettySize=auto;html=1;entryX=0;entryY=0.5;entryDx=0;entryDy=0;endArrow=none;endFill=0;fontColor=light-dark(#000000,#000000);labelBackgroundColor=none;" edge="1" parent="1" source="Nlh5MWxRUOQyulOnam_9-22" target="Nlh5MWxRUOQyulOnam_9-134">
          <mxGeometry relative="1" as="geometry" />
        </mxCell>
        <mxCell id="Nlh5MWxRUOQyulOnam_9-22" value="«component»&lt;br&gt;&lt;div&gt;&lt;b&gt;MenuService&lt;/b&gt;&lt;/div&gt;" style="html=1;dropTarget=0;whiteSpace=wrap;verticalAlign=top;fontColor=#ffffff;labelBackgroundColor=none;fillColor=#0050ef;strokeColor=#001DBC;" vertex="1" parent="1">
          <mxGeometry x="948.5" y="210" width="130" height="50" as="geometry" />
        </mxCell>
        <mxCell id="Nlh5MWxRUOQyulOnam_9-23" value="" style="shape=module;jettyWidth=8;jettyHeight=4;fontColor=light-dark(#000000,#000000);labelBackgroundColor=none;" vertex="1" parent="Nlh5MWxRUOQyulOnam_9-22">
          <mxGeometry x="1" width="20" height="20" relative="1" as="geometry">
            <mxPoint x="-27" y="7" as="offset" />
          </mxGeometry>
        </mxCell>
        <mxCell id="Nlh5MWxRUOQyulOnam_9-139" style="edgeStyle=orthogonalEdgeStyle;rounded=0;orthogonalLoop=1;jettySize=auto;html=1;entryX=0;entryY=0.5;entryDx=0;entryDy=0;endArrow=none;endFill=0;fontColor=light-dark(#000000,#000000);labelBackgroundColor=none;" edge="1" parent="1" source="Nlh5MWxRUOQyulOnam_9-24" target="Nlh5MWxRUOQyulOnam_9-134">
          <mxGeometry relative="1" as="geometry" />
        </mxCell>
        <mxCell id="Nlh5MWxRUOQyulOnam_9-24" value="«component»&lt;br&gt;&lt;div&gt;&lt;b&gt;OrderService&lt;/b&gt;&lt;/div&gt;" style="html=1;dropTarget=0;whiteSpace=wrap;verticalAlign=top;fontColor=#ffffff;labelBackgroundColor=none;fillColor=#0050ef;strokeColor=#001DBC;" vertex="1" parent="1">
          <mxGeometry x="948.5" y="270" width="130" height="50" as="geometry" />
        </mxCell>
        <mxCell id="Nlh5MWxRUOQyulOnam_9-25" value="" style="shape=module;jettyWidth=8;jettyHeight=4;fontColor=light-dark(#000000,#000000);labelBackgroundColor=none;" vertex="1" parent="Nlh5MWxRUOQyulOnam_9-24">
          <mxGeometry x="1" width="20" height="20" relative="1" as="geometry">
            <mxPoint x="-27" y="7" as="offset" />
          </mxGeometry>
        </mxCell>
        <mxCell id="Nlh5MWxRUOQyulOnam_9-108" style="edgeStyle=orthogonalEdgeStyle;rounded=0;orthogonalLoop=1;jettySize=auto;html=1;entryX=0;entryY=0.5;entryDx=0;entryDy=0;endArrow=none;endFill=0;fontColor=light-dark(#000000,#000000);labelBackgroundColor=none;" edge="1" parent="1" source="Nlh5MWxRUOQyulOnam_9-26" target="Nlh5MWxRUOQyulOnam_9-107">
          <mxGeometry relative="1" as="geometry" />
        </mxCell>
        <mxCell id="Nlh5MWxRUOQyulOnam_9-26" value="«component»&lt;br&gt;&lt;div&gt;&lt;b&gt;RabbitService&lt;/b&gt;&lt;/div&gt;" style="html=1;dropTarget=0;whiteSpace=wrap;verticalAlign=top;fontColor=#ffffff;labelBackgroundColor=none;fillColor=#0050ef;strokeColor=#001DBC;" vertex="1" parent="1">
          <mxGeometry x="948.5" y="330" width="130" height="50" as="geometry" />
        </mxCell>
        <mxCell id="Nlh5MWxRUOQyulOnam_9-27" value="" style="shape=module;jettyWidth=8;jettyHeight=4;fontColor=light-dark(#000000,#000000);labelBackgroundColor=none;" vertex="1" parent="Nlh5MWxRUOQyulOnam_9-26">
          <mxGeometry x="1" width="20" height="20" relative="1" as="geometry">
            <mxPoint x="-27" y="7" as="offset" />
          </mxGeometry>
        </mxCell>
        <mxCell id="Nlh5MWxRUOQyulOnam_9-28" value="" style="shape=providedRequiredInterface;html=1;verticalLabelPosition=bottom;sketch=0;rotation=-181;fontColor=light-dark(#000000,#000000);labelBackgroundColor=none;fillColor=#0050EF;" vertex="1" parent="1">
          <mxGeometry x="160.00300101593672" y="415.0030010159367" width="20" height="20" as="geometry" />
        </mxCell>
        <mxCell id="Nlh5MWxRUOQyulOnam_9-29" style="edgeStyle=orthogonalEdgeStyle;rounded=0;orthogonalLoop=1;jettySize=auto;html=1;entryX=1;entryY=0.5;entryDx=0;entryDy=0;entryPerimeter=0;endArrow=none;endFill=0;fontColor=light-dark(#000000,#000000);labelBackgroundColor=none;" edge="1" parent="1" source="Nlh5MWxRUOQyulOnam_9-11" target="Nlh5MWxRUOQyulOnam_9-28">
          <mxGeometry relative="1" as="geometry">
            <Array as="points">
              <mxPoint x="80" y="425" />
            </Array>
          </mxGeometry>
        </mxCell>
        <mxCell id="Nlh5MWxRUOQyulOnam_9-34" style="edgeStyle=orthogonalEdgeStyle;rounded=0;orthogonalLoop=1;jettySize=auto;html=1;endArrow=none;endFill=0;fontColor=light-dark(#000000,#000000);labelBackgroundColor=none;" edge="1" parent="1" source="Nlh5MWxRUOQyulOnam_9-30" target="Nlh5MWxRUOQyulOnam_9-33">
          <mxGeometry relative="1" as="geometry" />
        </mxCell>
        <mxCell id="Nlh5MWxRUOQyulOnam_9-30" value="" style="whiteSpace=wrap;html=1;aspect=fixed;fontColor=light-dark(#000000,#000000);labelBackgroundColor=none;fillColor=#0050EF;" vertex="1" parent="1">
          <mxGeometry x="281.5" y="415" width="20" height="20" as="geometry" />
        </mxCell>
        <mxCell id="Nlh5MWxRUOQyulOnam_9-31" style="edgeStyle=orthogonalEdgeStyle;rounded=0;orthogonalLoop=1;jettySize=auto;html=1;entryX=0;entryY=0.5;entryDx=0;entryDy=0;entryPerimeter=0;endArrow=none;endFill=0;fontColor=light-dark(#000000,#000000);labelBackgroundColor=none;" edge="1" parent="1" source="Nlh5MWxRUOQyulOnam_9-30" target="Nlh5MWxRUOQyulOnam_9-28">
          <mxGeometry relative="1" as="geometry" />
        </mxCell>
        <mxCell id="Nlh5MWxRUOQyulOnam_9-58" value="REST" style="edgeLabel;html=1;align=center;verticalAlign=middle;resizable=0;points=[];fontColor=light-dark(#000000,#000000);labelBackgroundColor=none;" vertex="1" connectable="0" parent="Nlh5MWxRUOQyulOnam_9-31">
          <mxGeometry x="0.1292" y="1" relative="1" as="geometry">
            <mxPoint x="6" y="9" as="offset" />
          </mxGeometry>
        </mxCell>
        <mxCell id="Nlh5MWxRUOQyulOnam_9-36" style="edgeStyle=orthogonalEdgeStyle;rounded=0;orthogonalLoop=1;jettySize=auto;html=1;endArrow=none;endFill=0;fontColor=light-dark(#000000,#000000);labelBackgroundColor=none;" edge="1" parent="1" source="Nlh5MWxRUOQyulOnam_9-33" target="Nlh5MWxRUOQyulOnam_9-35">
          <mxGeometry relative="1" as="geometry" />
        </mxCell>
        <mxCell id="Nlh5MWxRUOQyulOnam_9-54" style="edgeStyle=orthogonalEdgeStyle;rounded=0;orthogonalLoop=1;jettySize=auto;html=1;entryX=0.5;entryY=0;entryDx=0;entryDy=0;dashed=1;fontColor=light-dark(#000000,#000000);labelBackgroundColor=none;" edge="1" parent="1" source="Nlh5MWxRUOQyulOnam_9-33" target="Nlh5MWxRUOQyulOnam_9-3">
          <mxGeometry relative="1" as="geometry" />
        </mxCell>
        <mxCell id="Nlh5MWxRUOQyulOnam_9-33" value="API secured goes trough authentication" style="shape=note;size=20;whiteSpace=wrap;html=1;fontColor=light-dark(#FFFFFF,#000000);labelBackgroundColor=none;fillColor=#0050EF;" vertex="1" parent="1">
          <mxGeometry x="441.5" y="390" width="120" height="70" as="geometry" />
        </mxCell>
        <mxCell id="Nlh5MWxRUOQyulOnam_9-35" value="" style="whiteSpace=wrap;html=1;aspect=fixed;fontColor=light-dark(#000000,#000000);labelBackgroundColor=none;fillColor=#0050EF;" vertex="1" parent="1">
          <mxGeometry x="630" y="415" width="20" height="20" as="geometry" />
        </mxCell>
        <mxCell id="Nlh5MWxRUOQyulOnam_9-47" style="edgeStyle=orthogonalEdgeStyle;rounded=0;orthogonalLoop=1;jettySize=auto;html=1;entryX=1;entryY=0.5;entryDx=0;entryDy=0;endArrow=none;endFill=0;fontColor=light-dark(#000000,#000000);labelBackgroundColor=none;" edge="1" parent="1" source="Nlh5MWxRUOQyulOnam_9-37" target="Nlh5MWxRUOQyulOnam_9-40">
          <mxGeometry relative="1" as="geometry">
            <mxPoint x="843.5" y="230" as="targetPoint" />
          </mxGeometry>
        </mxCell>
        <mxCell id="Nlh5MWxRUOQyulOnam_9-37" value="" style="shape=providedRequiredInterface;html=1;verticalLabelPosition=bottom;sketch=0;rotation=-181;fontColor=#ffffff;labelBackgroundColor=none;fillColor=#0050ef;strokeColor=#001DBC;" vertex="1" parent="1">
          <mxGeometry x="873.6730010159367" y="165.00300101593675" width="20" height="20" as="geometry" />
        </mxCell>
        <mxCell id="Nlh5MWxRUOQyulOnam_9-45" style="edgeStyle=orthogonalEdgeStyle;rounded=0;orthogonalLoop=1;jettySize=auto;html=1;entryX=1;entryY=0.5;entryDx=0;entryDy=0;endArrow=none;endFill=0;fontColor=light-dark(#000000,#000000);labelBackgroundColor=none;" edge="1" parent="1" source="Nlh5MWxRUOQyulOnam_9-38" target="Nlh5MWxRUOQyulOnam_9-40">
          <mxGeometry relative="1" as="geometry" />
        </mxCell>
        <mxCell id="Nlh5MWxRUOQyulOnam_9-38" value="" style="shape=providedRequiredInterface;html=1;verticalLabelPosition=bottom;sketch=0;rotation=-181;fontColor=#ffffff;labelBackgroundColor=none;fillColor=#0050ef;strokeColor=#001DBC;" vertex="1" parent="1">
          <mxGeometry x="873.6730010159367" y="225.00300101593675" width="20" height="20" as="geometry" />
        </mxCell>
        <mxCell id="Nlh5MWxRUOQyulOnam_9-46" style="edgeStyle=orthogonalEdgeStyle;rounded=0;orthogonalLoop=1;jettySize=auto;html=1;entryX=1;entryY=0.5;entryDx=0;entryDy=0;endArrow=none;endFill=0;fontColor=light-dark(#000000,#000000);labelBackgroundColor=none;" edge="1" parent="1" source="Nlh5MWxRUOQyulOnam_9-39" target="Nlh5MWxRUOQyulOnam_9-40">
          <mxGeometry relative="1" as="geometry">
            <mxPoint x="843.5" y="240" as="targetPoint" />
          </mxGeometry>
        </mxCell>
        <mxCell id="Nlh5MWxRUOQyulOnam_9-39" value="" style="shape=providedRequiredInterface;html=1;verticalLabelPosition=bottom;sketch=0;rotation=-181;fontColor=#ffffff;labelBackgroundColor=none;fillColor=#0050ef;strokeColor=#001DBC;" vertex="1" parent="1">
          <mxGeometry x="873.6730010159367" y="285.0030010159367" width="20" height="20" as="geometry" />
        </mxCell>
        <mxCell id="Nlh5MWxRUOQyulOnam_9-40" value="" style="whiteSpace=wrap;html=1;aspect=fixed;fontColor=#ffffff;labelBackgroundColor=none;fillColor=#0050EF;strokeColor=#6D1F00;" vertex="1" parent="1">
          <mxGeometry x="783.5" y="225" width="20" height="20" as="geometry" />
        </mxCell>
        <mxCell id="Nlh5MWxRUOQyulOnam_9-49" style="edgeStyle=orthogonalEdgeStyle;rounded=0;orthogonalLoop=1;jettySize=auto;html=1;entryX=1;entryY=0.5;entryDx=0;entryDy=0;endArrow=none;endFill=0;fontColor=light-dark(#000000,#000000);labelBackgroundColor=none;" edge="1" parent="1" source="Nlh5MWxRUOQyulOnam_9-41" target="Nlh5MWxRUOQyulOnam_9-35">
          <mxGeometry relative="1" as="geometry" />
        </mxCell>
        <mxCell id="Nlh5MWxRUOQyulOnam_9-56" value="REST" style="edgeLabel;html=1;align=center;verticalAlign=middle;resizable=0;points=[];fontColor=light-dark(#000000,#000000);labelBackgroundColor=none;" vertex="1" connectable="0" parent="Nlh5MWxRUOQyulOnam_9-49">
          <mxGeometry x="-0.1809" y="-2" relative="1" as="geometry">
            <mxPoint x="19" y="3" as="offset" />
          </mxGeometry>
        </mxCell>
        <mxCell id="Nlh5MWxRUOQyulOnam_9-41" value="" style="shape=providedRequiredInterface;html=1;verticalLabelPosition=bottom;sketch=0;rotation=-181;fontColor=light-dark(#000000,#000000);labelBackgroundColor=none;fillColor=#0050EF;" vertex="1" parent="1">
          <mxGeometry x="723.5030010159368" y="225.00300101593675" width="20" height="20" as="geometry" />
        </mxCell>
        <mxCell id="Nlh5MWxRUOQyulOnam_9-48" style="edgeStyle=orthogonalEdgeStyle;rounded=0;orthogonalLoop=1;jettySize=auto;html=1;entryX=0;entryY=0.5;entryDx=0;entryDy=0;entryPerimeter=0;endArrow=none;endFill=0;fontColor=light-dark(#000000,#000000);labelBackgroundColor=none;" edge="1" parent="1" source="Nlh5MWxRUOQyulOnam_9-40" target="Nlh5MWxRUOQyulOnam_9-41">
          <mxGeometry relative="1" as="geometry" />
        </mxCell>
        <mxCell id="Nlh5MWxRUOQyulOnam_9-50" value="API requests" style="text;html=1;align=center;verticalAlign=middle;resizable=0;points=[];autosize=1;strokeColor=none;fillColor=none;fontSize=10;fontColor=light-dark(#000000,#000000);labelBackgroundColor=none;" vertex="1" parent="1">
          <mxGeometry x="693.5" y="195" width="80" height="30" as="geometry" />
        </mxCell>
        <mxCell id="Nlh5MWxRUOQyulOnam_9-52" style="edgeStyle=orthogonalEdgeStyle;rounded=0;orthogonalLoop=1;jettySize=auto;html=1;entryX=0;entryY=0.5;entryDx=0;entryDy=0;entryPerimeter=0;endArrow=none;endFill=0;fontColor=light-dark(#000000,#000000);labelBackgroundColor=none;" edge="1" parent="1" source="Nlh5MWxRUOQyulOnam_9-22" target="Nlh5MWxRUOQyulOnam_9-38">
          <mxGeometry relative="1" as="geometry" />
        </mxCell>
        <mxCell id="Nlh5MWxRUOQyulOnam_9-53" style="edgeStyle=orthogonalEdgeStyle;rounded=0;orthogonalLoop=1;jettySize=auto;html=1;entryX=0;entryY=0.5;entryDx=0;entryDy=0;entryPerimeter=0;endArrow=none;endFill=0;fontColor=light-dark(#000000,#000000);labelBackgroundColor=none;" edge="1" parent="1" source="Nlh5MWxRUOQyulOnam_9-24" target="Nlh5MWxRUOQyulOnam_9-39">
          <mxGeometry relative="1" as="geometry" />
        </mxCell>
        <mxCell id="Nlh5MWxRUOQyulOnam_9-72" style="edgeStyle=orthogonalEdgeStyle;rounded=0;orthogonalLoop=1;jettySize=auto;html=1;entryX=0;entryY=0.5;entryDx=0;entryDy=0;endArrow=none;endFill=0;fontColor=light-dark(#000000,#000000);labelBackgroundColor=none;" edge="1" parent="1" source="Nlh5MWxRUOQyulOnam_9-61" target="Nlh5MWxRUOQyulOnam_9-71">
          <mxGeometry relative="1" as="geometry" />
        </mxCell>
        <mxCell id="Nlh5MWxRUOQyulOnam_9-73" style="edgeStyle=orthogonalEdgeStyle;rounded=0;orthogonalLoop=1;jettySize=auto;html=1;entryX=0.25;entryY=0;entryDx=0;entryDy=0;dashed=1;fontColor=light-dark(#000000,#000000);labelBackgroundColor=none;" edge="1" parent="1" source="Nlh5MWxRUOQyulOnam_9-61" target="Nlh5MWxRUOQyulOnam_9-3">
          <mxGeometry relative="1" as="geometry">
            <Array as="points">
              <mxPoint x="361.5" y="490" />
              <mxPoint x="361.5" y="530" />
              <mxPoint x="459.5" y="530" />
            </Array>
          </mxGeometry>
        </mxCell>
        <mxCell id="Nlh5MWxRUOQyulOnam_9-61" value="" style="whiteSpace=wrap;html=1;aspect=fixed;fontColor=light-dark(#000000,#000000);labelBackgroundColor=none;fillColor=#0050EF;" vertex="1" parent="1">
          <mxGeometry x="281.5" y="480" width="20" height="20" as="geometry" />
        </mxCell>
        <mxCell id="Nlh5MWxRUOQyulOnam_9-68" style="edgeStyle=orthogonalEdgeStyle;rounded=0;orthogonalLoop=1;jettySize=auto;html=1;entryX=0.75;entryY=0;entryDx=0;entryDy=0;endArrow=none;endFill=0;fontColor=light-dark(#000000,#000000);labelBackgroundColor=none;" edge="1" parent="1" source="Nlh5MWxRUOQyulOnam_9-64" target="Nlh5MWxRUOQyulOnam_9-11">
          <mxGeometry relative="1" as="geometry" />
        </mxCell>
        <mxCell id="Nlh5MWxRUOQyulOnam_9-64" value="" style="shape=providedRequiredInterface;html=1;verticalLabelPosition=bottom;sketch=0;rotation=-181;fontColor=light-dark(#000000,#000000);labelBackgroundColor=none;fillColor=#0050EF;" vertex="1" parent="1">
          <mxGeometry x="165.00300101593672" y="480.0030010159367" width="20" height="20" as="geometry" />
        </mxCell>
        <mxCell id="Nlh5MWxRUOQyulOnam_9-95" style="edgeStyle=orthogonalEdgeStyle;rounded=0;orthogonalLoop=1;jettySize=auto;html=1;entryX=0;entryY=0.5;entryDx=0;entryDy=0;endArrow=none;endFill=0;fontColor=light-dark(#000000,#000000);labelBackgroundColor=none;" edge="1" parent="1" source="Nlh5MWxRUOQyulOnam_9-96" target="Nlh5MWxRUOQyulOnam_9-90">
          <mxGeometry relative="1" as="geometry" />
        </mxCell>
        <mxCell id="Nlh5MWxRUOQyulOnam_9-71" value="" style="whiteSpace=wrap;html=1;aspect=fixed;fontColor=light-dark(#000000,#000000);labelBackgroundColor=none;fillColor=#0050EF;" vertex="1" parent="1">
          <mxGeometry x="630" y="480" width="20" height="20" as="geometry" />
        </mxCell>
        <mxCell id="Nlh5MWxRUOQyulOnam_9-74" value="«service»&lt;br&gt;&lt;b&gt;WebSocket&lt;/b&gt;" style="html=1;dropTarget=0;whiteSpace=wrap;verticalAlign=top;fillColor=#1ba1e2;fontColor=#ffffff;strokeColor=#006EAF;labelBackgroundColor=none;" vertex="1" parent="1">
          <mxGeometry x="793.5" y="540" width="380" height="310" as="geometry" />
        </mxCell>
        <mxCell id="Nlh5MWxRUOQyulOnam_9-75" value="" style="shape=module;jettyWidth=8;jettyHeight=4;fontColor=light-dark(#000000,#000000);labelBackgroundColor=none;" vertex="1" parent="Nlh5MWxRUOQyulOnam_9-74">
          <mxGeometry x="1" width="20" height="20" relative="1" as="geometry">
            <mxPoint x="-27" y="7" as="offset" />
          </mxGeometry>
        </mxCell>
        <mxCell id="Nlh5MWxRUOQyulOnam_9-76" value="«component»&lt;br&gt;&lt;div&gt;&lt;b&gt;WSHandler&lt;/b&gt;&lt;/div&gt;" style="html=1;dropTarget=0;whiteSpace=wrap;verticalAlign=top;fillColor=#0050EF;fontColor=light-dark(#FFFFFF,#000000);strokeColor=#2D7600;labelBackgroundColor=none;" vertex="1" parent="1">
          <mxGeometry x="953.5" y="615" width="130" height="50" as="geometry" />
        </mxCell>
        <mxCell id="Nlh5MWxRUOQyulOnam_9-77" value="" style="shape=module;jettyWidth=8;jettyHeight=4;fontColor=light-dark(#000000,#000000);labelBackgroundColor=none;" vertex="1" parent="Nlh5MWxRUOQyulOnam_9-76">
          <mxGeometry x="1" width="20" height="20" relative="1" as="geometry">
            <mxPoint x="-27" y="7" as="offset" />
          </mxGeometry>
        </mxCell>
        <mxCell id="Nlh5MWxRUOQyulOnam_9-153" style="edgeStyle=orthogonalEdgeStyle;rounded=0;orthogonalLoop=1;jettySize=auto;html=1;entryX=0;entryY=0.5;entryDx=0;entryDy=0;endArrow=none;endFill=0;fontColor=light-dark(#000000,#000000);labelBackgroundColor=none;" edge="1" parent="1" source="Nlh5MWxRUOQyulOnam_9-78" target="Nlh5MWxRUOQyulOnam_9-152">
          <mxGeometry relative="1" as="geometry" />
        </mxCell>
        <mxCell id="Nlh5MWxRUOQyulOnam_9-78" value="«component»&lt;br&gt;&lt;div&gt;&lt;b&gt;TaskListService&lt;/b&gt;&lt;/div&gt;" style="html=1;dropTarget=0;whiteSpace=wrap;verticalAlign=top;fillColor=#0050EF;fontColor=light-dark(#FFFFFF,#000000);strokeColor=#2D7600;labelBackgroundColor=none;" vertex="1" parent="1">
          <mxGeometry x="953.5" y="760" width="130" height="50" as="geometry" />
        </mxCell>
        <mxCell id="Nlh5MWxRUOQyulOnam_9-79" value="" style="shape=module;jettyWidth=8;jettyHeight=4;fontColor=light-dark(#000000,#000000);labelBackgroundColor=none;" vertex="1" parent="Nlh5MWxRUOQyulOnam_9-78">
          <mxGeometry x="1" width="20" height="20" relative="1" as="geometry">
            <mxPoint x="-27" y="7" as="offset" />
          </mxGeometry>
        </mxCell>
        <mxCell id="Nlh5MWxRUOQyulOnam_9-114" style="edgeStyle=orthogonalEdgeStyle;rounded=0;orthogonalLoop=1;jettySize=auto;html=1;entryX=0;entryY=0.5;entryDx=0;entryDy=0;endArrow=none;endFill=0;fontColor=light-dark(#000000,#000000);labelBackgroundColor=none;" edge="1" parent="1" source="Nlh5MWxRUOQyulOnam_9-82" target="Nlh5MWxRUOQyulOnam_9-113">
          <mxGeometry relative="1" as="geometry" />
        </mxCell>
        <mxCell id="Nlh5MWxRUOQyulOnam_9-82" value="«component»&lt;br&gt;&lt;div&gt;&lt;b&gt;RabbitService&lt;/b&gt;&lt;/div&gt;" style="html=1;dropTarget=0;whiteSpace=wrap;verticalAlign=top;fillColor=#0050EF;fontColor=light-dark(#FFFFFF,#000000);strokeColor=#2D7600;labelBackgroundColor=none;" vertex="1" parent="1">
          <mxGeometry x="953.5" y="685" width="130" height="50" as="geometry" />
        </mxCell>
        <mxCell id="Nlh5MWxRUOQyulOnam_9-83" value="" style="shape=module;jettyWidth=8;jettyHeight=4;fontColor=light-dark(#000000,#000000);labelBackgroundColor=none;" vertex="1" parent="Nlh5MWxRUOQyulOnam_9-82">
          <mxGeometry x="1" width="20" height="20" relative="1" as="geometry">
            <mxPoint x="-27" y="7" as="offset" />
          </mxGeometry>
        </mxCell>
        <mxCell id="Nlh5MWxRUOQyulOnam_9-84" style="edgeStyle=orthogonalEdgeStyle;rounded=0;orthogonalLoop=1;jettySize=auto;html=1;entryX=1;entryY=0.5;entryDx=0;entryDy=0;endArrow=none;endFill=0;fontColor=light-dark(#000000,#000000);labelBackgroundColor=none;" edge="1" parent="1" source="Nlh5MWxRUOQyulOnam_9-85" target="Nlh5MWxRUOQyulOnam_9-90">
          <mxGeometry relative="1" as="geometry">
            <mxPoint x="848.5" y="710" as="targetPoint" />
          </mxGeometry>
        </mxCell>
        <mxCell id="Nlh5MWxRUOQyulOnam_9-85" value="" style="shape=providedRequiredInterface;html=1;verticalLabelPosition=bottom;sketch=0;rotation=-181;fontColor=light-dark(#000000,#000000);labelBackgroundColor=none;fillColor=#0050EF;" vertex="1" parent="1">
          <mxGeometry x="873.6730010159367" y="630.0030010159368" width="20" height="20" as="geometry" />
        </mxCell>
        <mxCell id="Nlh5MWxRUOQyulOnam_9-90" value="" style="whiteSpace=wrap;html=1;aspect=fixed;fillColor=#0050EF;fontColor=light-dark(#000000,#000000);strokeColor=#2D7600;labelBackgroundColor=none;" vertex="1" parent="1">
          <mxGeometry x="783.5" y="630" width="20" height="20" as="geometry" />
        </mxCell>
        <mxCell id="Nlh5MWxRUOQyulOnam_9-91" style="edgeStyle=orthogonalEdgeStyle;rounded=0;orthogonalLoop=1;jettySize=auto;html=1;entryX=0;entryY=0.5;entryDx=0;entryDy=0;entryPerimeter=0;endArrow=none;endFill=0;fontColor=light-dark(#000000,#000000);labelBackgroundColor=none;" edge="1" parent="1" source="Nlh5MWxRUOQyulOnam_9-76" target="Nlh5MWxRUOQyulOnam_9-85">
          <mxGeometry relative="1" as="geometry" />
        </mxCell>
        <mxCell id="Nlh5MWxRUOQyulOnam_9-99" style="edgeStyle=orthogonalEdgeStyle;rounded=0;orthogonalLoop=1;jettySize=auto;html=1;entryX=1;entryY=0.5;entryDx=0;entryDy=0;endArrow=none;endFill=0;fontColor=light-dark(#000000,#000000);labelBackgroundColor=none;" edge="1" parent="1" source="Nlh5MWxRUOQyulOnam_9-96" target="Nlh5MWxRUOQyulOnam_9-71">
          <mxGeometry relative="1" as="geometry" />
        </mxCell>
        <mxCell id="Nlh5MWxRUOQyulOnam_9-100" value="WebSocket" style="edgeLabel;html=1;align=center;verticalAlign=middle;resizable=0;points=[];fontColor=light-dark(#000000,#000000);labelBackgroundColor=none;" vertex="1" connectable="0" parent="Nlh5MWxRUOQyulOnam_9-99">
          <mxGeometry x="0.0048" y="1" relative="1" as="geometry">
            <mxPoint x="33" y="-4" as="offset" />
          </mxGeometry>
        </mxCell>
        <mxCell id="Nlh5MWxRUOQyulOnam_9-96" value="" style="shape=providedRequiredInterface;html=1;verticalLabelPosition=bottom;sketch=0;rotation=-181;fontColor=light-dark(#000000,#000000);labelBackgroundColor=none;fillColor=#0050EF;" vertex="1" parent="1">
          <mxGeometry x="733.6730010159367" y="630.0030010159368" width="20" height="20" as="geometry" />
        </mxCell>
        <mxCell id="Nlh5MWxRUOQyulOnam_9-101" value="WebSocket&amp;nbsp;&lt;div&gt;connection&lt;/div&gt;" style="text;html=1;align=center;verticalAlign=middle;resizable=0;points=[];autosize=1;strokeColor=none;fillColor=none;fontSize=10;fontColor=light-dark(#000000,#000000);labelBackgroundColor=none;" vertex="1" parent="1">
          <mxGeometry x="703.5" y="645" width="80" height="40" as="geometry" />
        </mxCell>
        <mxCell id="Nlh5MWxRUOQyulOnam_9-104" value="«service»&lt;br&gt;&lt;b&gt;RabbitMQ&lt;/b&gt;" style="html=1;dropTarget=0;whiteSpace=wrap;verticalAlign=top;fillColor=#1ba1e2;strokeColor=#006EAF;fontColor=#ffffff;labelBackgroundColor=none;" vertex="1" parent="1">
          <mxGeometry x="1347.04" y="460" width="180" height="100" as="geometry" />
        </mxCell>
        <mxCell id="Nlh5MWxRUOQyulOnam_9-105" value="" style="shape=module;jettyWidth=8;jettyHeight=4;fontColor=light-dark(#000000,#000000);labelBackgroundColor=none;" vertex="1" parent="Nlh5MWxRUOQyulOnam_9-104">
          <mxGeometry x="1" width="20" height="20" relative="1" as="geometry">
            <mxPoint x="-27" y="7" as="offset" />
          </mxGeometry>
        </mxCell>
        <mxCell id="Nlh5MWxRUOQyulOnam_9-107" value="" style="whiteSpace=wrap;html=1;aspect=fixed;fontColor=#ffffff;labelBackgroundColor=none;fillColor=#0050ef;strokeColor=#001DBC;" vertex="1" parent="1">
          <mxGeometry x="1163.5" y="345" width="20" height="20" as="geometry" />
        </mxCell>
        <mxCell id="Nlh5MWxRUOQyulOnam_9-109" value="&lt;span&gt;AMQP&lt;/span&gt;" style="edgeStyle=orthogonalEdgeStyle;rounded=0;orthogonalLoop=1;jettySize=auto;html=1;entryX=1;entryY=0.5;entryDx=0;entryDy=0;entryPerimeter=0;endArrow=none;endFill=0;fontColor=light-dark(#000000,#000000);labelBackgroundColor=none;" edge="1" parent="1" source="Nlh5MWxRUOQyulOnam_9-107" target="Nlh5MWxRUOQyulOnam_9-115">
          <mxGeometry x="-0.0283" y="20" relative="1" as="geometry">
            <mxPoint x="1257.2145240643727" y="470.17752508030935" as="targetPoint" />
            <mxPoint as="offset" />
          </mxGeometry>
        </mxCell>
        <mxCell id="Nlh5MWxRUOQyulOnam_9-111" value="" style="whiteSpace=wrap;html=1;aspect=fixed;fillColor=light-dark(#0050EF,#7C6E8A);strokeColor=#001DBC;fontColor=light-dark(#000000,#000000);labelBackgroundColor=none;" vertex="1" parent="1">
          <mxGeometry x="1337.04" y="500" width="20" height="20" as="geometry" />
        </mxCell>
        <mxCell id="Nlh5MWxRUOQyulOnam_9-113" value="" style="whiteSpace=wrap;html=1;aspect=fixed;fillColor=#0050EF;fontColor=light-dark(#000000,#000000);strokeColor=#2D7600;labelBackgroundColor=none;" vertex="1" parent="1">
          <mxGeometry x="1163.5" y="700" width="20" height="20" as="geometry" />
        </mxCell>
        <mxCell id="Nlh5MWxRUOQyulOnam_9-115" value="" style="shape=providedRequiredInterface;html=1;verticalLabelPosition=bottom;sketch=0;rotation=-181;fontColor=light-dark(#000000,#000000);labelBackgroundColor=none;fillColor=#0050EF;" vertex="1" parent="1">
          <mxGeometry x="1257.2130010159367" y="500.0030010159368" width="20" height="20" as="geometry" />
        </mxCell>
        <mxCell id="Nlh5MWxRUOQyulOnam_9-116" style="edgeStyle=orthogonalEdgeStyle;rounded=0;orthogonalLoop=1;jettySize=auto;html=1;entryX=0;entryY=0.5;entryDx=0;entryDy=0;entryPerimeter=0;endArrow=none;endFill=0;fontColor=light-dark(#000000,#000000);labelBackgroundColor=none;" edge="1" parent="1" source="Nlh5MWxRUOQyulOnam_9-111" target="Nlh5MWxRUOQyulOnam_9-115">
          <mxGeometry relative="1" as="geometry" />
        </mxCell>
        <mxCell id="Nlh5MWxRUOQyulOnam_9-117" style="edgeStyle=orthogonalEdgeStyle;rounded=0;orthogonalLoop=1;jettySize=auto;html=1;entryX=1;entryY=0.5;entryDx=0;entryDy=0;entryPerimeter=0;endArrow=none;endFill=0;fontColor=light-dark(#000000,#000000);labelBackgroundColor=none;" edge="1" parent="1" source="Nlh5MWxRUOQyulOnam_9-113" target="Nlh5MWxRUOQyulOnam_9-115">
          <mxGeometry relative="1" as="geometry" />
        </mxCell>
        <mxCell id="Nlh5MWxRUOQyulOnam_9-118" value="AMQP" style="edgeLabel;html=1;align=center;verticalAlign=middle;resizable=0;points=[];fontColor=light-dark(#000000,#000000);labelBackgroundColor=none;" vertex="1" connectable="0" parent="Nlh5MWxRUOQyulOnam_9-117">
          <mxGeometry x="0.0456" y="2" relative="1" as="geometry">
            <mxPoint x="22" y="5" as="offset" />
          </mxGeometry>
        </mxCell>
        <mxCell id="Nlh5MWxRUOQyulOnam_9-119" style="edgeStyle=orthogonalEdgeStyle;rounded=0;orthogonalLoop=1;jettySize=auto;html=1;exitX=0.5;exitY=1;exitDx=0;exitDy=0;fontColor=light-dark(#000000,#000000);labelBackgroundColor=none;" edge="1" parent="1" source="Nlh5MWxRUOQyulOnam_9-104" target="Nlh5MWxRUOQyulOnam_9-104">
          <mxGeometry relative="1" as="geometry" />
        </mxCell>
        <mxCell id="Nlh5MWxRUOQyulOnam_9-121" style="edgeStyle=orthogonalEdgeStyle;rounded=0;orthogonalLoop=1;jettySize=auto;html=1;entryX=1;entryY=0.5;entryDx=0;entryDy=0;endArrow=none;endFill=0;fontColor=light-dark(#000000,#000000);labelBackgroundColor=none;" edge="1" parent="1" source="Nlh5MWxRUOQyulOnam_9-120" target="Nlh5MWxRUOQyulOnam_9-111">
          <mxGeometry relative="1" as="geometry" />
        </mxCell>
        <mxCell id="Nlh5MWxRUOQyulOnam_9-120" value="" style="shape=providedRequiredInterface;html=1;verticalLabelPosition=bottom;sketch=0;rotation=-181;fillColor=light-dark(#0050EF,#7C6E8A);fontColor=light-dark(#000000,#000000);strokeColor=#001DBC;labelBackgroundColor=none;" vertex="1" parent="1">
          <mxGeometry x="1387.2130010159367" y="500.0030010159367" width="20" height="20" as="geometry" />
        </mxCell>
        <mxCell id="Nlh5MWxRUOQyulOnam_9-128" value="«service»&lt;br&gt;&lt;b&gt;Database&lt;/b&gt;" style="html=1;dropTarget=0;whiteSpace=wrap;verticalAlign=top;fillColor=#1ba1e2;fontColor=#ffffff;strokeColor=#006EAF;labelBackgroundColor=none;" vertex="1" parent="1">
          <mxGeometry x="1347.04" y="185" width="180" height="100" as="geometry" />
        </mxCell>
        <mxCell id="Nlh5MWxRUOQyulOnam_9-129" value="" style="shape=module;jettyWidth=8;jettyHeight=4;fontColor=light-dark(#000000,#000000);labelBackgroundColor=none;" vertex="1" parent="Nlh5MWxRUOQyulOnam_9-128">
          <mxGeometry x="1" width="20" height="20" relative="1" as="geometry">
            <mxPoint x="-27" y="7" as="offset" />
          </mxGeometry>
        </mxCell>
        <mxCell id="Nlh5MWxRUOQyulOnam_9-130" value="" style="whiteSpace=wrap;html=1;aspect=fixed;fillColor=light-dark(#0050EF,#7C6E8A);strokeColor=light-dark(#6F0000, #000000);fontColor=light-dark(#000000,#000000);labelBackgroundColor=none;" vertex="1" parent="1">
          <mxGeometry x="1337.04" y="225" width="20" height="20" as="geometry" />
        </mxCell>
        <mxCell id="Nlh5MWxRUOQyulOnam_9-131" style="edgeStyle=orthogonalEdgeStyle;rounded=0;orthogonalLoop=1;jettySize=auto;html=1;exitX=0.5;exitY=1;exitDx=0;exitDy=0;fontColor=light-dark(#000000,#000000);labelBackgroundColor=none;" edge="1" parent="1" source="Nlh5MWxRUOQyulOnam_9-128" target="Nlh5MWxRUOQyulOnam_9-128">
          <mxGeometry relative="1" as="geometry" />
        </mxCell>
        <mxCell id="Nlh5MWxRUOQyulOnam_9-132" style="edgeStyle=orthogonalEdgeStyle;rounded=0;orthogonalLoop=1;jettySize=auto;html=1;endArrow=none;endFill=0;strokeColor=light-dark(#000000,#212121);fontColor=light-dark(#000000,#000000);labelBackgroundColor=none;" edge="1" parent="1" source="Nlh5MWxRUOQyulOnam_9-133">
          <mxGeometry relative="1" as="geometry">
            <mxPoint x="1357.04" y="235" as="targetPoint" />
          </mxGeometry>
        </mxCell>
        <mxCell id="Nlh5MWxRUOQyulOnam_9-133" value="" style="shape=providedRequiredInterface;html=1;verticalLabelPosition=bottom;sketch=0;rotation=-181;fillColor=light-dark(#0050EF,#7C6E8A);strokeColor=light-dark(#6F0000,#000000);fontColor=light-dark(#000000,#000000);labelBackgroundColor=none;" vertex="1" parent="1">
          <mxGeometry x="1387.2130010159367" y="225.00300101593672" width="20" height="20" as="geometry" />
        </mxCell>
        <mxCell id="Nlh5MWxRUOQyulOnam_9-134" value="" style="whiteSpace=wrap;html=1;aspect=fixed;fontColor=#ffffff;labelBackgroundColor=none;fillColor=#0050ef;strokeColor=#001DBC;" vertex="1" parent="1">
          <mxGeometry x="1163.5" y="225" width="20" height="20" as="geometry" />
        </mxCell>
        <mxCell id="Nlh5MWxRUOQyulOnam_9-142" style="edgeStyle=orthogonalEdgeStyle;rounded=0;orthogonalLoop=1;jettySize=auto;html=1;entryX=1;entryY=0.5;entryDx=0;entryDy=0;endArrow=none;endFill=0;fontColor=light-dark(#000000,#000000);labelBackgroundColor=none;" edge="1" parent="1" source="Nlh5MWxRUOQyulOnam_9-140" target="Nlh5MWxRUOQyulOnam_9-134">
          <mxGeometry relative="1" as="geometry" />
        </mxCell>
        <mxCell id="Nlh5MWxRUOQyulOnam_9-143" value="JDBC" style="edgeLabel;html=1;align=center;verticalAlign=middle;resizable=0;points=[];fontColor=light-dark(#000000,#000000);labelBackgroundColor=none;" vertex="1" connectable="0" parent="Nlh5MWxRUOQyulOnam_9-142">
          <mxGeometry x="0.2215" y="-1" relative="1" as="geometry">
            <mxPoint x="8" y="-9" as="offset" />
          </mxGeometry>
        </mxCell>
        <mxCell id="Nlh5MWxRUOQyulOnam_9-140" value="" style="shape=providedRequiredInterface;html=1;verticalLabelPosition=bottom;sketch=0;rotation=-181;fontColor=light-dark(#000000,#000000);labelBackgroundColor=none;fillColor=#0050EF;" vertex="1" parent="1">
          <mxGeometry x="1257.2130010159367" y="225.00300101593675" width="20" height="20" as="geometry" />
        </mxCell>
        <mxCell id="Nlh5MWxRUOQyulOnam_9-141" style="edgeStyle=orthogonalEdgeStyle;rounded=0;orthogonalLoop=1;jettySize=auto;html=1;entryX=0;entryY=0.5;entryDx=0;entryDy=0;entryPerimeter=0;endArrow=none;endFill=0;fontColor=light-dark(#000000,#000000);labelBackgroundColor=none;" edge="1" parent="1" source="Nlh5MWxRUOQyulOnam_9-130" target="Nlh5MWxRUOQyulOnam_9-140">
          <mxGeometry relative="1" as="geometry" />
        </mxCell>
        <mxCell id="Nlh5MWxRUOQyulOnam_9-146" style="edgeStyle=orthogonalEdgeStyle;rounded=0;orthogonalLoop=1;jettySize=auto;html=1;entryX=0;entryY=0.5;entryDx=0;entryDy=0;entryPerimeter=0;endArrow=none;endFill=0;fontColor=light-dark(#000000,#000000);labelBackgroundColor=none;" edge="1" parent="1" source="Nlh5MWxRUOQyulOnam_9-61" target="Nlh5MWxRUOQyulOnam_9-64">
          <mxGeometry relative="1" as="geometry" />
        </mxCell>
        <mxCell id="Nlh5MWxRUOQyulOnam_9-147" value="WS" style="edgeLabel;html=1;align=center;verticalAlign=middle;resizable=0;points=[];fontColor=light-dark(#000000,#000000);labelBackgroundColor=none;" vertex="1" connectable="0" parent="Nlh5MWxRUOQyulOnam_9-146">
          <mxGeometry x="0.2257" relative="1" as="geometry">
            <mxPoint x="18" y="10" as="offset" />
          </mxGeometry>
        </mxCell>
        <mxCell id="Nlh5MWxRUOQyulOnam_9-150" value="&amp;lt;&amp;lt;service&amp;gt;&amp;gt;&lt;div&gt;&lt;b&gt;TaskList&lt;/b&gt;&lt;/div&gt;" style="html=1;dropTarget=0;whiteSpace=wrap;verticalAlign=top;fontColor=light-dark(#FFFFFF,#000000);labelBackgroundColor=none;fillColor=#1BA1E2;" vertex="1" parent="1">
          <mxGeometry x="775" y="1020" width="185" height="90" as="geometry" />
        </mxCell>
        <mxCell id="Nlh5MWxRUOQyulOnam_9-151" value="" style="shape=module;jettyWidth=8;jettyHeight=4;fontColor=light-dark(#000000,#000000);labelBackgroundColor=none;" vertex="1" parent="Nlh5MWxRUOQyulOnam_9-150">
          <mxGeometry x="1" width="20" height="20" relative="1" as="geometry">
            <mxPoint x="-27" y="7" as="offset" />
          </mxGeometry>
        </mxCell>
        <mxCell id="Nlh5MWxRUOQyulOnam_9-152" value="" style="whiteSpace=wrap;html=1;aspect=fixed;fillColor=#0050EF;fontColor=light-dark(#000000,#000000);strokeColor=#2D7600;labelBackgroundColor=none;" vertex="1" parent="1">
          <mxGeometry x="1163.5" y="775" width="20" height="20" as="geometry" />
        </mxCell>
        <mxCell id="Nlh5MWxRUOQyulOnam_9-154" value="" style="shape=providedRequiredInterface;html=1;verticalLabelPosition=bottom;sketch=0;rotation=-90;fontColor=light-dark(#000000,#000000);labelBackgroundColor=none;fillColor=#0050EF;" vertex="1" parent="1">
          <mxGeometry x="1210.0030010159367" y="1020.0030010159368" width="20" height="20" as="geometry" />
        </mxCell>
        <mxCell id="Nlh5MWxRUOQyulOnam_9-155" style="edgeStyle=orthogonalEdgeStyle;rounded=0;orthogonalLoop=1;jettySize=auto;html=1;entryX=1;entryY=0.5;entryDx=0;entryDy=0;entryPerimeter=0;endArrow=none;endFill=0;fontColor=light-dark(#000000,#000000);labelBackgroundColor=none;" edge="1" parent="1" source="Nlh5MWxRUOQyulOnam_9-152" target="Nlh5MWxRUOQyulOnam_9-154">
          <mxGeometry relative="1" as="geometry" />
        </mxCell>
        <mxCell id="Nlh5MWxRUOQyulOnam_9-160" style="edgeStyle=orthogonalEdgeStyle;rounded=0;orthogonalLoop=1;jettySize=auto;html=1;entryX=0;entryY=0.5;entryDx=0;entryDy=0;endArrow=none;endFill=0;fontColor=light-dark(#000000,#000000);labelBackgroundColor=none;" edge="1" parent="1" source="Nlh5MWxRUOQyulOnam_9-156" target="Nlh5MWxRUOQyulOnam_9-157">
          <mxGeometry relative="1" as="geometry" />
        </mxCell>
        <mxCell id="Nlh5MWxRUOQyulOnam_9-156" value="" style="shape=providedRequiredInterface;html=1;verticalLabelPosition=bottom;sketch=0;rotation=0;fontColor=light-dark(#000000,#000000);labelBackgroundColor=none;fillColor=#0050EF;" vertex="1" parent="1">
          <mxGeometry x="880" y="1070" width="20" height="20" as="geometry" />
        </mxCell>
        <mxCell id="Nlh5MWxRUOQyulOnam_9-157" value="" style="whiteSpace=wrap;html=1;aspect=fixed;fontColor=light-dark(#000000,#000000);labelBackgroundColor=none;fillColor=#0050EF;" vertex="1" parent="1">
          <mxGeometry x="948.5" y="1070" width="20" height="20" as="geometry" />
        </mxCell>
        <mxCell id="Nlh5MWxRUOQyulOnam_9-161" style="edgeStyle=orthogonalEdgeStyle;rounded=0;orthogonalLoop=1;jettySize=auto;html=1;entryX=0;entryY=0.5;entryDx=0;entryDy=0;entryPerimeter=0;endArrow=none;endFill=0;fontColor=light-dark(#000000,#000000);labelBackgroundColor=none;" edge="1" parent="1" source="Nlh5MWxRUOQyulOnam_9-157" target="Nlh5MWxRUOQyulOnam_9-154">
          <mxGeometry relative="1" as="geometry" />
        </mxCell>
        <mxCell id="Nlh5MWxRUOQyulOnam_9-162" value="REST" style="edgeLabel;html=1;align=center;verticalAlign=middle;resizable=0;points=[];fontColor=light-dark(#000000,#000000);labelBackgroundColor=none;" vertex="1" connectable="0" parent="Nlh5MWxRUOQyulOnam_9-161">
          <mxGeometry x="0.1096" y="1" relative="1" as="geometry">
            <mxPoint y="-9" as="offset" />
          </mxGeometry>
        </mxCell>
        <mxCell id="Nlh5MWxRUOQyulOnam_9-170" style="edgeStyle=orthogonalEdgeStyle;rounded=0;orthogonalLoop=1;jettySize=auto;html=1;entryX=0;entryY=0.5;entryDx=0;entryDy=0;entryPerimeter=0;endArrow=none;endFill=0;" edge="1" parent="1" source="Nlh5MWxRUOQyulOnam_9-20" target="Nlh5MWxRUOQyulOnam_9-37">
          <mxGeometry relative="1" as="geometry" />
        </mxCell>
        <mxCell id="Nlh5MWxRUOQyulOnam_9-171" value="Restaurant API" style="text;html=1;align=center;verticalAlign=middle;resizable=0;points=[];autosize=1;strokeColor=none;fillColor=none;" vertex="1" parent="1">
          <mxGeometry x="120" y="380" width="110" height="30" as="geometry" />
        </mxCell>
        <mxCell id="Nlh5MWxRUOQyulOnam_9-172" value="WebSocket&amp;nbsp;&lt;div&gt;Connection&lt;/div&gt;" style="text;html=1;align=center;verticalAlign=middle;resizable=0;points=[];autosize=1;strokeColor=none;fillColor=none;" vertex="1" parent="1">
          <mxGeometry x="130" y="500" width="90" height="40" as="geometry" />
        </mxCell>
        <mxCell id="Nlh5MWxRUOQyulOnam_9-173" value="Dish API" style="text;html=1;align=center;verticalAlign=middle;resizable=0;points=[];autosize=1;strokeColor=none;fillColor=none;fontSize=10;fontColor=light-dark(#FFFFFF,#000000);labelBackgroundColor=none;" vertex="1" parent="1">
          <mxGeometry x="853.67" y="135" width="60" height="30" as="geometry" />
        </mxCell>
        <mxCell id="Nlh5MWxRUOQyulOnam_9-174" value="Menu API" style="text;html=1;align=center;verticalAlign=middle;resizable=0;points=[];autosize=1;strokeColor=none;fillColor=none;fontSize=10;fontColor=light-dark(#FFFFFF,#000000);labelBackgroundColor=none;" vertex="1" parent="1">
          <mxGeometry x="848.67" y="195" width="70" height="30" as="geometry" />
        </mxCell>
        <mxCell id="Nlh5MWxRUOQyulOnam_9-176" value="Order API" style="text;html=1;align=center;verticalAlign=middle;resizable=0;points=[];autosize=1;strokeColor=none;fillColor=none;fontSize=10;fontColor=light-dark(#FFFFFF,#000000);labelBackgroundColor=none;" vertex="1" parent="1">
          <mxGeometry x="848.67" y="260" width="70" height="30" as="geometry" />
        </mxCell>
        <mxCell id="Nlh5MWxRUOQyulOnam_9-177" value="DB&amp;nbsp;&lt;div&gt;Connection&lt;/div&gt;" style="text;html=1;align=center;verticalAlign=middle;resizable=0;points=[];autosize=1;strokeColor=none;fillColor=none;fontSize=10;fontColor=light-dark(#000000,#000000);labelBackgroundColor=none;" vertex="1" parent="1">
          <mxGeometry x="1236" y="190" width="70" height="40" as="geometry" />
        </mxCell>
        <mxCell id="Nlh5MWxRUOQyulOnam_9-178" value="Message Broker API" style="text;html=1;align=center;verticalAlign=middle;resizable=0;points=[];autosize=1;strokeColor=none;fillColor=none;fontSize=10;fontColor=light-dark(#000000,#000000);labelBackgroundColor=none;" vertex="1" parent="1">
          <mxGeometry x="1217.04" y="515" width="120" height="30" as="geometry" />
        </mxCell>
        <mxCell id="Nlh5MWxRUOQyulOnam_9-180" value="WebSocket&amp;nbsp;&lt;div&gt;connection&lt;/div&gt;" style="text;html=1;align=center;verticalAlign=middle;resizable=0;points=[];autosize=1;strokeColor=none;fillColor=none;fontSize=10;fontColor=light-dark(#FFFFFF,#000000);labelBackgroundColor=none;" vertex="1" parent="1">
          <mxGeometry x="843.67" y="645" width="80" height="40" as="geometry" />
        </mxCell>
        <mxCell id="Nlh5MWxRUOQyulOnam_9-182" value="Camunda&#39;s Task API" style="text;html=1;align=center;verticalAlign=middle;resizable=0;points=[];autosize=1;strokeColor=none;fillColor=none;fontSize=10;fontColor=light-dark(#000000,#000000);labelBackgroundColor=none;" vertex="1" parent="1">
          <mxGeometry x="1217.21" y="1015" width="120" height="30" as="geometry" />
        </mxCell>
        <mxCell id="Nlh5MWxRUOQyulOnam_9-184" value="Message Broker API" style="text;html=1;align=center;verticalAlign=middle;resizable=0;points=[];autosize=1;strokeColor=none;fillColor=none;fontSize=10;fontColor=light-dark(#000000,#000000);labelBackgroundColor=none;" vertex="1" parent="1">
          <mxGeometry x="1347.04" y="520" width="120" height="30" as="geometry" />
        </mxCell>
      </root>
    </mxGraphModel>
  </diagram>
</mxfile>
